<svg width="1439" height="1047" viewBox="0 0 1439 1047" fill="none" xmlns="http://www.w3.org/2000/svg">









<path class="cone-line" d="M521.927 288.256C596.267 375.436 784.001 619.115 899.2 979.967" stroke="white" stroke-opacity="0.5" stroke-width="0.4" stroke-miterlimit="10"/>
<path class="cone-line" d="M966.536 166.385C948.808 282.272 918.253 585.381 1007.02 949.657" stroke="white" stroke-opacity="0.5" stroke-width="0.4" stroke-miterlimit="10"/>
<path class="cone-line" d="M823.932 978.273C823.932 978.273 703.606 679.448 237.798 496.935" stroke="white" stroke-opacity="0.5" stroke-width="0.4" stroke-miterlimit="10"/>
<path class="cone-line" d="M1065.57 910.346C1065.57 910.346 1013.02 595.589 1308.42 200.121" stroke="white" stroke-opacity="0.5" stroke-width="0.4" stroke-miterlimit="10"/>
<path class="cone-line" d="M1455.02 869.421C1455.02 869.421 1257.88 757.545 1109.81 882.97" stroke="white" stroke-opacity="0.5" stroke-width="0.4" stroke-miterlimit="10"/>
<path class="cone-line" d="M1596.02 436.096C1596.02 436.096 1252.07 558.791 1105.04 866.009" stroke="white" stroke-opacity="0.5" stroke-width="0.4" stroke-miterlimit="10"/>
<path class="cone-line" d="M1161.87 1068.17C1161.87 1068.17 1124.53 960.299 1041.71 932.634" stroke="white" stroke-opacity="0.5" stroke-width="0.4" stroke-miterlimit="10"/>
<path class="cone-line" d="M473.356 1146.42C473.356 1146.42 583.787 948.081 776.027 977.84" stroke="white" stroke-opacity="0.5" stroke-width="0.4" stroke-miterlimit="10"/>
<path class="cone-line" d="M111.135 855.596C111.135 855.596 485.587 776.154 770.989 959.916" stroke="white" stroke-opacity="0.5" stroke-width="0.4" stroke-miterlimit="10"/>
<path class="cone-line" d="M828.091 1163.04C828.091 1163.04 803.754 1051.51 860.031 984.745" stroke="white" stroke-opacity="0.5" stroke-width="0.4" stroke-miterlimit="10"/>
</svg>
